<svg width="35" height="56" viewBox="0 0 35 56" fill="none" xmlns="http://www.w3.org/2000/svg">
<path fill-rule="evenodd" clip-rule="evenodd" d="M30.9725 21.901C33.797 16.4909 31.1082 10.0734 28.0173 6.98257C22.4849 1.45015 13.5151 1.45015 7.98265 6.98257C2.45023 12.515 2.45023 21.4848 7.98265 27.0173C11.205 30.2396 17.5126 32.819 22.903 29.9757C23.4569 29.6835 23.7341 29.5373 23.8696 29.4829C24.4415 29.2528 24.7424 29.2178 25.3519 29.3103C25.4963 29.3322 25.6851 29.3812 26.0627 29.479C27.1957 29.7727 27.7623 29.9195 28.1752 29.9047C29.66 29.8512 30.8513 28.6599 30.9048 27.1752C30.9196 26.7623 30.7728 26.1958 30.4792 25.0628C30.3813 24.6852 30.3323 24.4964 30.3105 24.3528C30.2176 23.7434 30.251 23.4512 30.4789 22.8784C30.5326 22.7435 30.6793 22.4626 30.9725 21.901ZM13.5487 16.7986C13.5487 17.581 12.9144 18.2153 12.132 18.2153C11.3496 18.2153 10.7154 17.581 10.7154 16.7986C10.7154 16.0162 11.3496 15.382 12.132 15.382C12.9144 15.382 13.5487 16.0162 13.5487 16.7986ZM19.2154 16.7986C19.2154 17.581 18.5811 18.2153 17.7987 18.2153C17.0163 18.2153 16.382 17.581 16.382 16.7986C16.382 16.0162 17.0163 15.382 17.7987 15.382C18.5811 15.382 19.2154 16.0162 19.2154 16.7986ZM23.4654 18.2153C24.2478 18.2153 24.882 17.581 24.882 16.7986C24.882 16.0162 24.2478 15.382 23.4654 15.382C22.683 15.382 22.0487 16.0162 22.0487 16.7986C22.0487 17.581 22.683 18.2153 23.4654 18.2153Z" fill="white"/>
<path d="M2.79824 50.5V44.1475C2.79824 43.9987 2.79824 43.8412 2.79824 43.675C2.80699 43.5 2.81574 43.3206 2.82449 43.1369C2.52699 43.4256 2.18136 43.6794 1.78761 43.8981C1.39386 44.1081 0.991362 44.2612 0.580112 44.3575L0.304487 43.3994C0.461987 43.3819 0.658862 43.325 0.895112 43.2287C1.14011 43.1237 1.39386 42.9969 1.65636 42.8481C1.92761 42.6906 2.17699 42.5244 2.40449 42.3494C2.63199 42.1744 2.80699 42.0037 2.92949 41.8375H3.84824V50.5H2.79824ZM9.26425 50.6313C8.28425 50.6313 7.50112 50.2506 6.91487 49.4894C6.32862 48.7281 6.0355 47.6212 6.0355 46.1687C6.0355 44.7162 6.32862 43.6094 6.91487 42.8481C7.50112 42.0869 8.28425 41.7062 9.26425 41.7062C10.253 41.7062 11.0361 42.0869 11.6136 42.8481C12.1999 43.6094 12.493 44.7162 12.493 46.1687C12.493 47.6212 12.1999 48.7281 11.6136 49.4894C11.0361 50.2506 10.253 50.6313 9.26425 50.6313ZM9.26425 49.6862C9.728 49.6862 10.1174 49.555 10.4324 49.2925C10.7561 49.0212 10.9967 48.6231 11.1542 48.0981C11.3205 47.5731 11.4036 46.93 11.4036 46.1687C11.4036 45.4075 11.3205 44.7644 11.1542 44.2394C10.9967 43.7144 10.7561 43.3206 10.4324 43.0581C10.1174 42.7869 9.728 42.6512 9.26425 42.6512C8.8005 42.6512 8.40675 42.7869 8.083 43.0581C7.768 43.3206 7.52737 43.7144 7.36112 44.2394C7.20362 44.7644 7.12487 45.4075 7.12487 46.1687C7.12487 46.93 7.20362 47.5731 7.36112 48.0981C7.52737 48.6231 7.768 49.0212 8.083 49.2925C8.40675 49.555 8.8005 49.6862 9.26425 49.6862ZM14.7722 48.925C15.026 48.925 15.2316 49.0037 15.3891 49.1612C15.5466 49.3187 15.6254 49.5244 15.6254 49.7781C15.6254 50.0319 15.5466 50.2375 15.3891 50.395C15.2316 50.5525 15.026 50.6313 14.7722 50.6313C14.5185 50.6313 14.3129 50.5525 14.1554 50.395C13.9979 50.2375 13.9191 50.0319 13.9191 49.7781C13.9191 49.5244 13.9979 49.3187 14.1554 49.1612C14.3129 49.0037 14.5185 48.925 14.7722 48.925ZM15.8972 41.8375H22.2759V42.8219C21.5497 43.5919 20.9547 44.3837 20.4909 45.1975C20.0359 46.0025 19.7034 46.8425 19.4934 47.7175C19.2834 48.5925 19.1784 49.52 19.1784 50.5H18.1022C18.1022 49.5287 18.2203 48.5794 18.4566 47.6519C18.7016 46.7156 19.0691 45.8187 19.5591 44.9612C20.0491 44.1037 20.6572 43.3031 21.3834 42.5594L21.5541 42.8219H15.8972V41.8375ZM32.5206 41.8375V50.5H31.5231V45.0531L31.6412 42.7694H31.6281L28.78 50.5H27.8875L25.0394 42.7694H25.0262L25.1444 45.0531V50.5H24.1469V41.8375H25.7612L27.6644 47.1006L28.3206 49.2662H28.3469L29.0162 47.1137L30.9062 41.8375H32.5206Z" fill="white" fill-opacity="0.95"/>
</svg>
