<svg width="40" height="40" viewBox="0 0 40 40" fill="none" xmlns="http://www.w3.org/2000/svg">
<path d="M22.5 20C22.5 21.3828 21.3828 22.5 20 22.5C18.6172 22.5 17.5 21.3828 17.5 20C17.5 18.6172 18.6172 17.5 20 17.5C21.3828 17.5 22.5 18.6172 22.5 20ZM0 20C0 8.95312 8.95312 0 20 0C31.0469 0 40 8.95312 40 20C40 31.0469 31.0469 40 20 40C8.95312 40 0 31.0469 0 20ZM25.3984 23.9609L29.7344 12.6875C30.3203 11.1016 28.8281 9.67969 27.3125 10.2656L16.0391 14.6016C15.375 14.8516 14.8516 15.375 14.6016 16.0391L10.2656 27.3125C9.67969 28.8281 11.1016 30.3203 12.6875 29.7344L23.9609 25.3984C24.625 25.1484 25.1484 24.625 25.3984 23.9609Z" fill="#8E00FE"/>
</svg>
