<svg width="32" height="54" viewBox="0 0 32 54" fill="none" xmlns="http://www.w3.org/2000/svg">
<path d="M27.28 2.8615C24.8791 0.357216 21.4279 -0.581892 18.1267 0.357216L14.0752 10.2178L18.2767 11.3135C19.027 11.47 19.6272 12.4091 19.3271 13.1917C19.3271 13.3482 19.3271 13.3482 19.1771 13.5047L16.176 19.7654C16.0259 20.3915 15.5758 20.7045 14.9756 20.7045C14.6754 20.7045 14.5254 20.7045 14.3753 20.548C13.6251 20.235 13.325 19.2959 13.6251 18.5133L15.7258 13.9743L11.6744 12.8787C10.774 12.5656 10.3239 11.783 10.4739 11.0004C10.4739 10.8439 10.4739 10.8439 10.4739 10.8439L14.2253 1.76588C10.0238 -1.36448 4.17168 0.0441797 1.47071 4.5832C-0.930155 8.49615 -0.329939 13.5047 2.82119 16.7916L14.0752 28.5304C14.6754 29.1565 15.5758 29.1565 16.176 28.5304L27.43 16.7916C30.8813 12.8787 30.8813 6.77445 27.28 2.8615Z" fill="white"/>
<path d="M1.30138 49C1.21388 49 1.13951 48.9737 1.07826 48.9212C1.02576 48.86 0.999509 48.7856 0.999509 48.6981V48.2781C0.999509 48.1994 1.02138 48.1119 1.06513 48.0156C1.10888 47.9194 1.19638 47.8144 1.32763 47.7006L4.11013 44.9181C4.55638 44.5419 4.90638 44.2225 5.16013 43.96C5.42263 43.6887 5.60638 43.4306 5.71138 43.1856C5.82513 42.9406 5.88201 42.6869 5.88201 42.4244C5.88201 41.9256 5.74201 41.5319 5.46201 41.2431C5.18201 40.9456 4.76638 40.7969 4.21513 40.7969C3.86513 40.7969 3.56326 40.8712 3.30951 41.02C3.05576 41.16 2.85888 41.3569 2.71888 41.6106C2.57888 41.8556 2.48263 42.1356 2.43013 42.4506C2.41263 42.5644 2.36451 42.6431 2.28576 42.6869C2.21576 42.7306 2.15013 42.7525 2.08888 42.7525H1.40638C1.32763 42.7525 1.26201 42.7306 1.20951 42.6869C1.15701 42.6344 1.13076 42.5731 1.13076 42.5031C1.13951 42.1706 1.20951 41.8381 1.34076 41.5056C1.47201 41.1644 1.66451 40.8581 1.91826 40.5869C2.18076 40.3069 2.50013 40.0837 2.87638 39.9175C3.26138 39.7512 3.70763 39.6681 4.21513 39.6681C4.90638 39.6681 5.47076 39.795 5.90826 40.0487C6.35451 40.2937 6.68263 40.6219 6.89263 41.0331C7.10263 41.4444 7.20763 41.895 7.20763 42.385C7.20763 42.77 7.14201 43.1244 7.01076 43.4481C6.87951 43.7631 6.68701 44.0737 6.43326 44.38C6.18826 44.6775 5.88201 44.9837 5.51451 45.2987L2.99451 47.8581H7.08951C7.18576 47.8581 7.26013 47.8844 7.31263 47.9369C7.37388 47.9894 7.40451 48.0637 7.40451 48.16V48.6981C7.40451 48.7856 7.37388 48.86 7.31263 48.9212C7.26013 48.9737 7.18576 49 7.08951 49H1.30138ZM12.1021 49.1313C11.3759 49.1313 10.759 48.9869 10.2515 48.6981C9.74401 48.4006 9.35463 48.0156 9.08338 47.5431C8.82088 47.0619 8.68963 46.5412 8.68963 45.9812C8.68963 45.7187 8.72026 45.4694 8.78151 45.2331C8.85151 44.9881 8.93463 44.7606 9.03088 44.5506C9.13588 44.3319 9.23651 44.1394 9.33276 43.9731C9.43776 43.7981 9.52963 43.6581 9.60838 43.5531L12.1021 40.075C12.1459 40.0312 12.1984 39.9787 12.2596 39.9175C12.3209 39.8475 12.4128 39.8125 12.5353 39.8125H13.2309C13.3096 39.8125 13.3709 39.8431 13.4146 39.9044C13.4671 39.9569 13.4934 40.0225 13.4934 40.1012C13.4934 40.1362 13.489 40.1712 13.4803 40.2062C13.4715 40.2325 13.4584 40.2544 13.4409 40.2719L11.5246 42.9494C11.6296 42.9144 11.7521 42.8925 11.8921 42.8837C12.0321 42.8662 12.159 42.8575 12.2728 42.8575C12.754 42.8662 13.1915 42.9537 13.5853 43.12C13.979 43.2862 14.3159 43.5137 14.5959 43.8025C14.8846 44.0825 15.1034 44.4106 15.2521 44.7869C15.4009 45.1544 15.4753 45.5481 15.4753 45.9681C15.4753 46.5194 15.344 47.0356 15.0815 47.5169C14.819 47.9981 14.434 48.3875 13.9265 48.685C13.4278 48.9825 12.8196 49.1313 12.1021 49.1313ZM12.089 48.0156C12.4565 48.0156 12.7978 47.9369 13.1128 47.7794C13.4278 47.6219 13.6815 47.3944 13.874 47.0969C14.0753 46.7906 14.1759 46.4144 14.1759 45.9681C14.1759 45.5306 14.0796 45.1631 13.8871 44.8656C13.6946 44.5594 13.4365 44.3319 13.1128 44.1831C12.7978 44.0256 12.4565 43.9469 12.089 43.9469C11.7215 43.9469 11.3803 44.0256 11.0653 44.1831C10.7503 44.3319 10.4921 44.5594 10.2909 44.8656C10.0984 45.1631 10.0021 45.5306 10.0021 45.9681C10.0021 46.4144 10.0984 46.7906 10.2909 47.0969C10.4921 47.3944 10.7503 47.6219 11.0653 47.7794C11.3803 47.9369 11.7215 48.0156 12.089 48.0156ZM19.8005 49.1313C19.1092 49.1313 18.523 49.0131 18.0417 48.7769C17.5692 48.5319 17.2061 48.2169 16.9523 47.8319C16.7073 47.4469 16.5761 47.04 16.5586 46.6112C16.5498 46.5325 16.5717 46.4712 16.6242 46.4275C16.6767 46.375 16.7423 46.3487 16.8211 46.3487H17.5298C17.6086 46.3487 17.6786 46.3706 17.7398 46.4144C17.8011 46.4494 17.8492 46.5237 17.8842 46.6375C17.9717 46.9612 18.1117 47.2281 18.3042 47.4381C18.5055 47.6394 18.733 47.7881 18.9867 47.8844C19.2492 47.9719 19.5205 48.0156 19.8005 48.0156C20.1767 48.0156 20.518 47.9412 20.8242 47.7925C21.1392 47.635 21.3886 47.4075 21.5723 47.11C21.7561 46.8037 21.848 46.4362 21.848 46.0075C21.848 45.6137 21.7561 45.2769 21.5723 44.9969C21.3973 44.7081 21.1523 44.4894 20.8373 44.3406C20.5311 44.1831 20.1855 44.1044 19.8005 44.1044C19.5117 44.1044 19.2755 44.1394 19.0917 44.2094C18.908 44.2794 18.7505 44.3625 18.6192 44.4587C18.4967 44.555 18.383 44.6381 18.278 44.7081C18.1817 44.7781 18.0723 44.8131 17.9498 44.8131H17.2673C17.1886 44.8131 17.1186 44.7869 17.0573 44.7344C16.9961 44.6731 16.9698 44.6031 16.9786 44.5244L17.3986 40.1406C17.4073 40.0356 17.438 39.9569 17.4905 39.9044C17.5517 39.8431 17.6305 39.8125 17.7267 39.8125H22.3073C22.3948 39.8125 22.4648 39.8431 22.5173 39.9044C22.5786 39.9569 22.6092 40.0269 22.6092 40.1144V40.6262C22.6092 40.7225 22.5786 40.7969 22.5173 40.8494C22.4648 40.9019 22.3948 40.9281 22.3073 40.9281H18.5273L18.278 43.5137C18.4092 43.435 18.6061 43.3431 18.8686 43.2381C19.1398 43.1244 19.5117 43.0675 19.9842 43.0675C20.4217 43.0675 20.8286 43.1331 21.2048 43.2644C21.5898 43.3956 21.9267 43.5881 22.2155 43.8419C22.513 44.0956 22.7448 44.4062 22.9111 44.7737C23.0773 45.1325 23.1605 45.5481 23.1605 46.0206C23.1605 46.6856 23.0161 47.25 22.7273 47.7137C22.4386 48.1775 22.0405 48.5319 21.533 48.7769C21.0255 49.0131 20.448 49.1313 19.8005 49.1313ZM25.2047 49C25.1084 49 25.0341 48.9737 24.9816 48.9212C24.9291 48.86 24.9028 48.7856 24.9028 48.6981V40.1275C24.9028 40.0312 24.9291 39.9569 24.9816 39.9044C25.0341 39.8431 25.1084 39.8125 25.2047 39.8125H25.8609C25.9572 39.8125 26.0316 39.8431 26.0841 39.9044C26.1453 39.9569 26.1759 40.0312 26.1759 40.1275V43.3825L29.6803 40.0225C29.7153 39.9875 29.7722 39.9437 29.8509 39.8912C29.9384 39.8387 30.0522 39.8125 30.1922 39.8125H30.9009C30.9709 39.8125 31.0322 39.8387 31.0847 39.8912C31.1372 39.9437 31.1634 40.005 31.1634 40.075C31.1634 40.145 31.1459 40.2019 31.1109 40.2456L27.0553 44.2094L31.3734 48.5537C31.4172 48.6062 31.4391 48.6675 31.4391 48.7375C31.4391 48.8075 31.4128 48.8687 31.3603 48.9212C31.3078 48.9737 31.2466 49 31.1766 49H30.4416C30.2928 49 30.1791 48.9737 30.1003 48.9212C30.0216 48.86 29.9647 48.8119 29.9297 48.7769L26.1759 45.0887V48.6981C26.1759 48.7856 26.1453 48.86 26.0841 48.9212C26.0316 48.9737 25.9572 49 25.8609 49H25.2047Z" fill="white" fill-opacity="0.95"/>
</svg>
