<svg width="35" height="54" viewBox="0 0 35 54" fill="none" xmlns="http://www.w3.org/2000/svg">
<path d="M29.6209 6.50521C26.2169 3.0338 22.2751 4.49787 19.8343 6.04614C18.4552 6.92098 16.5448 6.92098 15.1656 6.04615C12.7249 4.49789 8.78313 3.03384 5.3791 6.50521C-2.70154 14.7457 11.1561 30.625 17.5 30.625C23.844 30.625 37.7015 14.7457 29.6209 6.50521Z" fill="#8E00FE"/>
<path d="M7.00258 49V42.6475C7.00258 42.4987 7.00258 42.3412 7.00258 42.175C7.01133 42 7.02008 41.8206 7.02883 41.6369C6.73133 41.9256 6.38571 42.1794 5.99196 42.3981C5.59821 42.6081 5.19571 42.7612 4.78446 42.8575L4.50883 41.8994C4.66633 41.8819 4.86321 41.825 5.09946 41.7287C5.34446 41.6237 5.59821 41.4969 5.86071 41.3481C6.13196 41.1906 6.38133 41.0244 6.60883 40.8494C6.83633 40.6744 7.01133 40.5037 7.13383 40.3375H8.05258V49H7.00258ZM11.1323 47.425C11.3861 47.425 11.5917 47.5037 11.7492 47.6612C11.9067 47.8187 11.9855 48.0244 11.9855 48.2781C11.9855 48.5319 11.9067 48.7375 11.7492 48.895C11.5917 49.0525 11.3861 49.1313 11.1323 49.1313C10.8786 49.1313 10.673 49.0525 10.5155 48.895C10.358 48.7375 10.2792 48.5319 10.2792 48.2781C10.2792 48.0244 10.358 47.8187 10.5155 47.6612C10.673 47.5037 10.8786 47.425 11.1323 47.425ZM16.6793 49.1313C15.9093 49.1313 15.2268 48.9519 14.6318 48.5931C14.0455 48.2256 13.6474 47.7225 13.4374 47.0837L14.4874 46.5456C14.5924 46.8694 14.7368 47.1537 14.9205 47.3987C15.1043 47.635 15.3449 47.8187 15.6424 47.95C15.9487 48.0812 16.3293 48.1469 16.7843 48.1469C17.1693 48.1469 17.493 48.0769 17.7555 47.9369C18.018 47.7969 18.2193 47.6087 18.3593 47.3725C18.4993 47.1275 18.5693 46.8475 18.5693 46.5325C18.5693 46.2175 18.508 45.955 18.3855 45.745C18.2718 45.535 18.088 45.3819 17.8343 45.2856C17.5805 45.1806 17.248 45.1281 16.8368 45.1281C16.7405 45.1281 16.6355 45.1325 16.5218 45.1413C16.408 45.1413 16.2899 45.15 16.1674 45.1675V44.1175C16.2462 44.1262 16.3205 44.1306 16.3905 44.1306C16.4693 44.1306 16.5393 44.1306 16.6005 44.1306C17.2393 44.1306 17.6943 44.0081 17.9655 43.7631C18.2368 43.5094 18.3724 43.1156 18.3724 42.5819C18.3724 42.1269 18.2324 41.7812 17.9524 41.545C17.6724 41.3087 17.2743 41.1906 16.758 41.1906C16.2068 41.1906 15.7868 41.3131 15.498 41.5581C15.2093 41.7944 14.9818 42.1181 14.8155 42.5294L13.818 42.0569C13.958 41.6894 14.168 41.3656 14.448 41.0856C14.728 40.8056 15.0649 40.5869 15.4587 40.4294C15.8612 40.2719 16.303 40.1931 16.7843 40.1931C17.388 40.1931 17.8868 40.2981 18.2805 40.5081C18.6743 40.7094 18.9674 40.9806 19.1599 41.3219C19.3612 41.6631 19.4618 42.0394 19.4618 42.4506C19.4618 42.7656 19.418 43.05 19.3305 43.3037C19.243 43.5487 19.1205 43.7631 18.963 43.9469C18.8143 44.1306 18.6437 44.2794 18.4512 44.3931C18.2587 44.4981 18.053 44.5681 17.8343 44.6031V44.6294C18.123 44.6381 18.3768 44.695 18.5955 44.8C18.823 44.905 19.0155 45.045 19.173 45.22C19.3305 45.395 19.4487 45.5962 19.5274 45.8237C19.6149 46.0425 19.6587 46.2744 19.6587 46.5194C19.6587 47.0269 19.5318 47.4775 19.278 47.8712C19.033 48.265 18.6874 48.5756 18.2412 48.8031C17.7949 49.0219 17.2743 49.1313 16.6793 49.1313ZM30.3163 40.3375V49H29.3188V43.5531L29.4369 41.2694H29.4238L26.5756 49H25.6831L22.835 41.2694H22.8219L22.94 43.5531V49H21.9425V40.3375H23.5569L25.46 45.6006L26.1163 47.7662H26.1425L26.8119 45.6137L28.7019 40.3375H30.3163Z" fill="white" fill-opacity="0.95"/>
</svg>
