<svg width="40" height="40" viewBox="0 0 40 40" fill="none" xmlns="http://www.w3.org/2000/svg">
<path d="M40 31.0982V33.0832C40 33.3141 39.8891 33.5356 39.6917 33.6988C39.4943 33.8621 39.2265 33.9538 38.9474 33.9538H1.05263C0.773457 33.9538 0.505716 33.8621 0.30831 33.6988C0.110903 33.5356 8.42721e-07 33.3141 8.42721e-07 33.0832V31.0982C-0.000579342 30.4587 0.298439 29.8439 0.834271 29.3829C1.3701 28.9219 2.10107 28.6505 2.87369 28.6257C3.02308 28.402 3.11954 28.1567 3.1579 27.9031V17.5167C3.15175 15.4691 3.71197 13.4475 4.79571 11.6066C5.87945 9.7656 7.45798 8.15406 9.41053 6.89524C11.3907 5.61826 13.698 4.73308 16.1557 4.30753C18.6134 3.88197 21.1563 3.92733 23.5895 4.44012C30.3158 5.79827 35.7895 11.7184 35.7895 17.6299V27.6767C36.1062 28.0704 36.5321 28.3957 37.0316 28.6257C37.8208 28.6303 38.5758 28.8928 39.1319 29.356C39.688 29.8192 40 30.4455 40 31.0982ZM19.4947 3.15161C20.7262 3.15911 21.9535 3.26995 23.1579 3.48245V2.61183C23.1579 1.91913 22.8252 1.2548 22.233 0.764988C21.6407 0.275175 20.8375 0 20 0C19.1625 0 18.3593 0.275175 17.767 0.764988C17.1748 1.2548 16.8421 1.91913 16.8421 2.61183V3.32574C17.7198 3.21307 18.6065 3.15487 19.4947 3.15161ZM12.7158 34.8245C12.9814 36.2649 13.8622 37.579 15.1985 38.5285C16.5348 39.4779 18.2383 40 20 40C21.7617 40 23.4652 39.4779 24.8015 38.5285C26.1378 37.579 27.0186 36.2649 27.2842 34.8245H12.7158Z" fill="#8E00FE"/>
</svg>
