<svg width="30" height="30" viewBox="0 0 30 30" fill="none" xmlns="http://www.w3.org/2000/svg">
<g clip-path="url(#clip0_29_17)">
<path d="M29.3145 25.998L22.3008 18.9844C23.8957 16.6166 24.6826 13.6582 24.2614 10.5058C23.543 5.14392 19.1485 0.780449 13.7813 0.100937C5.80139 -0.908809 -0.908765 5.80135 0.101039 13.7812C0.780727 19.1508 5.14479 23.5488 10.5073 24.2637C13.6596 24.6849 16.6186 23.8983 18.9858 22.3031L25.9995 29.3168C26.9147 30.232 28.3989 30.232 29.3141 29.3168C30.2285 28.4004 30.2285 26.9121 29.3145 25.998ZM4.63479 12.1875C4.63479 8.05193 7.99924 4.68748 12.1348 4.68748C16.2703 4.68748 19.6348 8.05193 19.6348 12.1875C19.6348 16.323 16.2703 19.6875 12.1348 19.6875C7.99924 19.6875 4.63479 16.3242 4.63479 12.1875Z" fill="#8E00FE"/>
</g>
<defs>
<clipPath id="clip0_29_17">
<rect width="30" height="30" fill="white"/>
</clipPath>
</defs>
</svg>
